<svg width="13" height="13" viewBox="0 0 13 13" fill="none" xmlns="http://www.w3.org/2000/svg">
<path d="M1.21484 11.7148C0.726103 11.2261 0.726103 10.4337 1.21484 9.94496L9.87464 1.28516C10.3634 0.796415 11.1558 0.796415 11.6445 1.28516C12.1333 1.7739 12.1333 2.5663 11.6445 3.05504L2.98473 11.7148C2.49599 12.2036 1.70358 12.2036 1.21484 11.7148ZM1.21484 3.05504C0.726103 2.5663 0.726104 1.7739 1.21484 1.28516C1.70359 0.796415 2.49599 0.796415 2.98473 1.28516L11.6445 9.94496C12.1333 10.4337 12.1333 11.2261 11.6445 11.7148C11.1558 12.2036 10.3634 12.2036 9.87464 11.7148L1.21484 3.05504Z" fill="#5F5CF0"/>
</svg>
