<svg width="14" height="14" viewBox="0 0 14 14" fill="none" xmlns="http://www.w3.org/2000/svg">
<path d="M0.892577 13.1777C0.340319 12.6255 0.340319 11.7301 0.892577 11.1778L10.6778 1.39258C11.2301 0.840319 12.1255 0.84032 12.6777 1.39258C13.23 1.94484 13.23 2.84022 12.6777 3.39248L2.89248 13.1777C2.34022 13.73 1.44484 13.73 0.892577 13.1777ZM0.892577 3.39248C0.340318 2.84022 0.34032 1.94484 0.892578 1.39258C1.44484 0.84032 2.34023 0.840319 2.89248 1.39258L12.6777 11.1778C13.23 11.7301 13.23 12.6255 12.6777 13.1777C12.1255 13.73 11.2301 13.73 10.6778 13.1777L0.892577 3.39248Z" fill="#A5A5A5"/>
</svg>
