<svg width="16" height="17" viewBox="0 0 16 17" fill="none" xmlns="http://www.w3.org/2000/svg">
<path d="M1.07108 15.5711C0.408376 14.9084 0.408374 13.8339 1.07108 13.1712L12.8133 1.42893C13.476 0.766223 14.5505 0.766224 15.2132 1.42893C15.8759 2.09164 15.8759 3.1661 15.2132 3.82881L3.47096 15.5711C2.80825 16.2338 1.73379 16.2338 1.07108 15.5711ZM1.07108 3.82881C0.408375 3.1661 0.408375 2.09164 1.07108 1.42893C1.73379 0.766224 2.80825 0.766224 3.47096 1.42893L15.2132 13.1712C15.8759 13.8339 15.8759 14.9084 15.2132 15.5711C14.5505 16.2338 13.476 16.2338 12.8133 15.5711L1.07108 3.82881Z" fill="white"/>
</svg>
